<?xml version="1.0" standalone="no"?>
<!DOCTYPE svg PUBLIC "-//W3C//DTD SVG 20010904//EN"
 "http://www.w3.org/TR/2001/REC-SVG-20010904/DTD/svg10.dtd">
<svg version="1.0" xmlns="http://www.w3.org/2000/svg"
 width="36.000000pt" height="36.000000pt" viewBox="0 0 36.000000 36.000000"
 preserveAspectRatio="xMidYMid meet">

<g transform="translate(0.000000,36.000000) scale(0.100000,-0.100000)"
fill="#000000" stroke="none">
<path d="M100 338 c-132 -67 -132 -249 0 -316 56 -28 104 -28 160 0 132 67
132 249 0 316 -24 12 -60 22 -80 22 -20 0 -56 -10 -80 -22z m124 -7 c16 -6 3
-17 -72 -57 l-91 -49 -3 -70 -3 -70 -18 37 c-23 49 -22 75 6 128 33 67 119
105 181 81z m57 -35 c3 -51 -5 -143 -13 -154 -21 -24 -27 4 -21 90 4 67 9 85
19 81 8 -3 14 -10 15 -17z m-51 -90 l0 -84 -44 -26 c-25 -14 -47 -26 -51 -26
-3 0 -4 39 -3 87 l3 87 40 23 c22 12 43 23 48 23 4 0 7 -38 7 -84z m106 -2 c6
-33 -10 -99 -27 -109 -5 -4 -9 32 -9 87 1 84 2 91 15 74 8 -11 17 -34 21 -52z
m-226 -69 c0 -95 0 -96 -21 -84 -20 10 -21 17 -16 87 5 64 15 91 35 92 1 0 2
-43 2 -95z m158 -87 c-32 -20 -88 -31 -120 -22 l-33 10 80 45 80 45 3 -35 c2
-20 -2 -37 -10 -43z"/>
<path d="M160 205 c0 -8 9 -15 20 -15 11 0 20 7 20 15 0 8 -9 15 -20 15 -11 0
-20 -7 -20 -15z"/>
<path d="M162 153 c4 -23 32 -23 36 0 2 12 -3 17 -18 17 -15 0 -20 -5 -18 -17z"/>
</g>
</svg>
